# xmcd
#
# Track frame offsets:
#  150
#  13422
#  25778
#  35461
#  49646
#  62265
#  74351
#  85428
#  98900
#  109001
#  120731
#  131855
#  143347
#  155803
#  167353
#  180141
#  194507
#  207164
#  216924
#  229807
#  242172
#  255207
#  266064
#  278441
#
# Disc length: 3904 seconds
#
# Revision: 0
# Processed by: cddbd v1.5.2PL0 Copyright (c) Steve Scherf et al.
# Submitted via: Collectorz.com_Music_Collector 6.10
#
DISCID=4b0f3e18
DTITLE=Various Artist - More Mellow Cats and Kittens
DYEAR=2005
DGENRE=R&B
TTITLE0=Ali, Bardu - Bardu's Boogie
TTITLE1=Jimmy Grissom - Just Got Back
TTITLE2=Todd Rhodes and His Toddlers, - How Long, How Long, How Long 
TTITLE3=Clarence Williams - Bacon Blues
TTITLE4=Three Bits of Rhythm - Yas Yas Yas
TTITLE5=Pearl Traylor - Jive I Like
TTITLE6=Stone, Butch - Your Red Wagon
TTITLE7=Mcshann, Hootie - Going Home Blues
TTITLE8=Slay, Emmitt - Looky Ploot
TTITLE9=Geechie Smith - Daddy Does It Just for You
TTITLE10=The Nocturnes - Gotta Go Back to Katie
TTITLE11=Todd Rhodes and His Toddlers, - Then Comes the Day
TTITLE12=Tiny Webb - Billboard Special
TTITLE13=Jake "Vernon" Porter - Sister Kool Breeze
TTITLE14=Stone, Butch - I'm OK
TTITLE15=The Nocturnes - Lazy Daisy
TTITLE16=Unknown - Don't You Lie to Me
TTITLE17=Todd Rhodes and His Toddlers - Evening Sun
TTITLE18=Three Bits of Rhythm - Blow My Top
TTITLE19=Stone, Butch - Put Your Brakes on Mama
TTITLE20=Bobby Nunn and The Robbins - Rockin'
TTITLE21=Todd Rhodes and His Toddlers, - How About That Jive
TTITLE22=Al Wichard - Cake Jumps
TTITLE23=Scamps - Goodnight Wherever You Are
EXTD=
EXTT0=
EXTT1=
EXTT2=
EXTT3=
EXTT4=
EXTT5=
EXTT6=
EXTT7=
EXTT8=
EXTT9=
EXTT10=
EXTT11=
EXTT12=
EXTT13=
EXTT14=
EXTT15=
EXTT16=
EXTT17=
EXTT18=
EXTT19=
EXTT20=
EXTT21=
EXTT22=
EXTT23=
PLAYORDER=
